<svg width="156" height="138" viewBox="0 0 156 138" fill="none" xmlns="http://www.w3.org/2000/svg">
<ellipse cx="84.7999" cy="74.184" rx="3.86906" ry="3.80118" transform="rotate(17.0316 84.7999 74.184)" fill="#328383" fill-opacity="0.15"/>
<ellipse cx="44.8207" cy="61.937" rx="3.86906" ry="3.80118" transform="rotate(17.0316 44.8207 61.937)" fill="#328383" fill-opacity="0.15"/>
<ellipse cx="94.7947" cy="77.2457" rx="3.86906" ry="3.80118" transform="rotate(17.0316 94.7947 77.2457)" fill="#328383" fill-opacity="0.15"/>
<ellipse cx="54.8154" cy="64.9987" rx="3.86906" ry="3.80118" transform="rotate(17.0316 54.8154 64.9987)" fill="#328383" fill-opacity="0.15"/>
<ellipse cx="104.789" cy="80.3075" rx="3.86906" ry="3.80118" transform="rotate(17.0316 104.789 80.3075)" fill="#328383" fill-opacity="0.15"/>
<ellipse cx="64.8103" cy="68.0605" rx="3.86906" ry="3.80118" transform="rotate(17.0316 64.8103 68.0605)" fill="#328383" fill-opacity="0.15"/>
<ellipse cx="114.784" cy="83.3692" rx="3.86906" ry="3.80118" transform="rotate(17.0316 114.784 83.3692)" fill="#328383" fill-opacity="0.15"/>
<ellipse cx="74.8051" cy="71.1222" rx="3.86906" ry="3.80118" transform="rotate(17.0316 74.8051 71.1222)" fill="#328383" fill-opacity="0.15"/>
<ellipse cx="72.7119" cy="113.644" rx="3.86906" ry="3.80118" transform="rotate(17.0316 72.7119 113.644)" fill="#328383" fill-opacity="0.15"/>
<ellipse cx="32.7326" cy="101.397" rx="3.86906" ry="3.80118" transform="rotate(17.0316 32.7326 101.397)" fill="#328383" fill-opacity="0.15"/>
<ellipse cx="82.7067" cy="116.706" rx="3.86906" ry="3.80118" transform="rotate(17.0316 82.7067 116.706)" fill="#328383" fill-opacity="0.15"/>
<ellipse cx="42.7275" cy="104.459" rx="3.86906" ry="3.80118" transform="rotate(17.0316 42.7275 104.459)" fill="#328383" fill-opacity="0.15"/>
<ellipse cx="92.7015" cy="119.767" rx="3.86906" ry="3.80118" transform="rotate(17.0316 92.7015 119.767)" fill="#328383" fill-opacity="0.15"/>
<ellipse cx="52.7223" cy="107.52" rx="3.86906" ry="3.80118" transform="rotate(17.0316 52.7223 107.52)" fill="#328383" fill-opacity="0.15"/>
<ellipse cx="102.696" cy="122.829" rx="3.86906" ry="3.80118" transform="rotate(17.0316 102.696 122.829)" fill="#328383" fill-opacity="0.15"/>
<ellipse cx="62.7171" cy="110.582" rx="3.86906" ry="3.80118" transform="rotate(17.0316 62.7171 110.582)" fill="#328383" fill-opacity="0.15"/>
<ellipse cx="90.8439" cy="54.454" rx="3.86906" ry="3.80118" transform="rotate(17.0316 90.8439 54.454)" fill="#328383" fill-opacity="0.15"/>
<ellipse cx="50.8647" cy="42.2069" rx="3.86906" ry="3.80118" transform="rotate(17.0316 50.8647 42.2069)" fill="#328383" fill-opacity="0.15"/>
<ellipse cx="100.839" cy="57.5157" rx="3.86906" ry="3.80118" transform="rotate(17.0316 100.839 57.5157)" fill="#328383" fill-opacity="0.15"/>
<ellipse cx="60.8595" cy="45.2687" rx="3.86906" ry="3.80118" transform="rotate(17.0316 60.8595 45.2687)" fill="#328383" fill-opacity="0.15"/>
<ellipse cx="110.833" cy="60.5775" rx="3.86906" ry="3.80118" transform="rotate(17.0316 110.833 60.5775)" fill="#328383" fill-opacity="0.15"/>
<ellipse cx="70.8543" cy="48.3304" rx="3.86906" ry="3.80118" transform="rotate(17.0316 70.8543 48.3304)" fill="#328383" fill-opacity="0.15"/>
<ellipse cx="120.828" cy="63.6392" rx="3.86906" ry="3.80118" transform="rotate(17.0316 120.828 63.6392)" fill="#328383" fill-opacity="0.15"/>
<ellipse cx="80.8491" cy="51.3922" rx="3.86906" ry="3.80118" transform="rotate(17.0316 80.8491 51.3922)" fill="#328383" fill-opacity="0.15"/>
<ellipse cx="78.7559" cy="93.914" rx="3.86906" ry="3.80118" transform="rotate(17.0316 78.7559 93.914)" fill="#328383" fill-opacity="0.15"/>
<ellipse cx="38.7766" cy="81.6669" rx="3.86906" ry="3.80118" transform="rotate(17.0316 38.7766 81.6669)" fill="#328383" fill-opacity="0.15"/>
<ellipse cx="88.7507" cy="96.9757" rx="3.86906" ry="3.80118" transform="rotate(17.0316 88.7507 96.9757)" fill="#328383" fill-opacity="0.15"/>
<ellipse cx="48.7714" cy="84.7287" rx="3.86906" ry="3.80118" transform="rotate(17.0316 48.7714 84.7287)" fill="#328383" fill-opacity="0.15"/>
<ellipse cx="98.7455" cy="100.037" rx="3.86906" ry="3.80118" transform="rotate(17.0316 98.7455 100.037)" fill="#328383" fill-opacity="0.15"/>
<ellipse cx="58.7662" cy="87.7905" rx="3.86906" ry="3.80118" transform="rotate(17.0316 58.7662 87.7905)" fill="#328383" fill-opacity="0.15"/>
<ellipse cx="108.74" cy="103.099" rx="3.86906" ry="3.80118" transform="rotate(17.0316 108.74 103.099)" fill="#328383" fill-opacity="0.15"/>
<ellipse cx="68.7611" cy="90.8522" rx="3.86906" ry="3.80118" transform="rotate(17.0316 68.7611 90.8522)" fill="#328383" fill-opacity="0.15"/>
<ellipse cx="87.8219" cy="64.319" rx="3.86906" ry="3.80118" transform="rotate(17.0316 87.8219 64.319)" fill="#328383" fill-opacity="0.15"/>
<ellipse cx="47.8427" cy="52.072" rx="3.86906" ry="3.80118" transform="rotate(17.0316 47.8427 52.072)" fill="#328383" fill-opacity="0.15"/>
<ellipse cx="97.8167" cy="67.3807" rx="3.86906" ry="3.80118" transform="rotate(17.0316 97.8167 67.3807)" fill="#328383" fill-opacity="0.15"/>
<ellipse cx="57.8374" cy="55.1337" rx="3.86906" ry="3.80118" transform="rotate(17.0316 57.8374 55.1337)" fill="#328383" fill-opacity="0.15"/>
<ellipse cx="107.811" cy="70.4425" rx="3.86906" ry="3.80118" transform="rotate(17.0316 107.811 70.4425)" fill="#328383" fill-opacity="0.15"/>
<ellipse cx="67.8322" cy="58.1955" rx="3.86906" ry="3.80118" transform="rotate(17.0316 67.8322 58.1955)" fill="#328383" fill-opacity="0.15"/>
<ellipse cx="117.806" cy="73.5043" rx="3.86906" ry="3.80118" transform="rotate(17.0316 117.806 73.5043)" fill="#328383" fill-opacity="0.15"/>
<ellipse cx="77.827" cy="61.2572" rx="3.86906" ry="3.80118" transform="rotate(17.0316 77.827 61.2572)" fill="#328383" fill-opacity="0.15"/>
<ellipse cx="75.7339" cy="103.779" rx="3.86906" ry="3.80118" transform="rotate(17.0316 75.7339 103.779)" fill="#328383" fill-opacity="0.15"/>
<ellipse cx="35.7547" cy="91.5319" rx="3.86906" ry="3.80118" transform="rotate(17.0316 35.7547 91.5319)" fill="#328383" fill-opacity="0.15"/>
<ellipse cx="85.7287" cy="106.841" rx="3.86906" ry="3.80118" transform="rotate(17.0316 85.7287 106.841)" fill="#328383" fill-opacity="0.15"/>
<ellipse cx="45.7494" cy="94.5937" rx="3.86906" ry="3.80118" transform="rotate(17.0316 45.7494 94.5937)" fill="#328383" fill-opacity="0.15"/>
<ellipse cx="95.7235" cy="109.902" rx="3.86906" ry="3.80118" transform="rotate(17.0316 95.7235 109.902)" fill="#328383" fill-opacity="0.15"/>
<ellipse cx="55.7442" cy="97.6555" rx="3.86906" ry="3.80118" transform="rotate(17.0316 55.7442 97.6555)" fill="#328383" fill-opacity="0.15"/>
<ellipse cx="105.718" cy="112.964" rx="3.86906" ry="3.80118" transform="rotate(17.0316 105.718 112.964)" fill="#328383" fill-opacity="0.15"/>
<ellipse cx="65.7391" cy="100.717" rx="3.86906" ry="3.80118" transform="rotate(17.0316 65.7391 100.717)" fill="#328383" fill-opacity="0.15"/>
<ellipse cx="93.8659" cy="44.589" rx="3.86906" ry="3.80118" transform="rotate(17.0316 93.8659 44.589)" fill="#328383" fill-opacity="0.15"/>
<ellipse cx="53.8866" cy="32.3419" rx="3.86906" ry="3.80118" transform="rotate(17.0316 53.8866 32.3419)" fill="#328383" fill-opacity="0.15"/>
<ellipse cx="103.861" cy="47.6507" rx="3.86906" ry="3.80118" transform="rotate(17.0316 103.861 47.6507)" fill="#328383" fill-opacity="0.15"/>
<ellipse cx="63.8814" cy="35.4037" rx="3.86906" ry="3.80118" transform="rotate(17.0316 63.8814 35.4037)" fill="#328383" fill-opacity="0.15"/>
<ellipse cx="113.855" cy="50.7125" rx="3.86906" ry="3.80118" transform="rotate(17.0316 113.855 50.7125)" fill="#328383" fill-opacity="0.15"/>
<ellipse cx="73.8762" cy="38.4654" rx="3.86906" ry="3.80118" transform="rotate(17.0316 73.8762 38.4654)" fill="#328383" fill-opacity="0.15"/>
<ellipse cx="123.85" cy="53.7742" rx="3.86906" ry="3.80118" transform="rotate(17.0316 123.85 53.7742)" fill="#328383" fill-opacity="0.15"/>
<ellipse cx="83.871" cy="41.5272" rx="3.86906" ry="3.80118" transform="rotate(17.0316 83.871 41.5272)" fill="#328383" fill-opacity="0.15"/>
<ellipse cx="81.7779" cy="84.049" rx="3.86906" ry="3.80118" transform="rotate(17.0316 81.7779 84.049)" fill="#328383" fill-opacity="0.15"/>
<ellipse cx="41.7987" cy="71.802" rx="3.86906" ry="3.80118" transform="rotate(17.0316 41.7987 71.802)" fill="#328383" fill-opacity="0.15"/>
<ellipse cx="91.7727" cy="87.1107" rx="3.86906" ry="3.80118" transform="rotate(17.0316 91.7727 87.1107)" fill="#328383" fill-opacity="0.15"/>
<ellipse cx="51.7935" cy="74.8637" rx="3.86906" ry="3.80118" transform="rotate(17.0316 51.7935 74.8637)" fill="#328383" fill-opacity="0.15"/>
<ellipse cx="101.768" cy="90.1725" rx="3.86906" ry="3.80118" transform="rotate(17.0316 101.768 90.1725)" fill="#328383" fill-opacity="0.15"/>
<ellipse cx="61.7883" cy="77.9254" rx="3.86906" ry="3.80118" transform="rotate(17.0316 61.7883 77.9254)" fill="#328383" fill-opacity="0.15"/>
<ellipse cx="111.762" cy="93.2342" rx="3.86906" ry="3.80118" transform="rotate(17.0316 111.762 93.2342)" fill="#328383" fill-opacity="0.15"/>
<ellipse cx="71.7831" cy="80.9872" rx="3.86906" ry="3.80118" transform="rotate(17.0316 71.7831 80.9872)" fill="#328383" fill-opacity="0.15"/>
</svg>
