<svg width="384" height="69" viewBox="0 0 384 69" fill="none" xmlns="http://www.w3.org/2000/svg">
<path d="M338.527 28.4872C338.527 30.0232 341.571 29.3649 341.781 30.2427C342.62 31.4495 340.626 31.669 341.151 32.8759C355.112 33.8633 369.388 34.741 383.349 37.2645C380.724 38.0326 378.205 39.02 375.686 38.4714C371.487 37.484 367.078 37.3743 362.88 37.1548C353.957 36.6062 345.14 35.0702 336.112 35.2896H332.858C335.587 35.9479 337.897 35.7285 338.841 37.7034C331.179 38.1423 324.041 36.8257 316.588 36.4965C316.378 37.1548 316.063 37.8131 315.748 38.4714C338.107 39.2394 360.36 40.2269 383.244 43.5184C378.835 45.2739 375.161 44.6156 371.907 44.3961C364.769 43.8475 357.736 42.9698 350.598 42.3115C349.653 42.2018 348.184 42.2018 347.554 42.5309C345.245 44.2864 343.04 43.1892 340.206 42.9698C341.676 41.8726 342.83 43.5184 344.3 42.0921C338.422 40.9949 333.068 42.7504 327.61 42.0921C322.151 41.4338 316.588 41.4338 310.185 41.2143C312.284 42.9698 315.013 42.6407 316.693 42.7504C321.836 42.7504 327.085 43.6281 332.228 43.5184C337.792 43.4087 343.145 44.067 348.499 44.5059C351.858 44.835 355.532 44.3961 358.891 44.067C360.045 43.9573 359.416 44.3961 359.521 44.7253C360.045 45.7127 361.83 45.603 363.299 45.603C368.653 45.4933 373.901 46.2613 378.835 47.2488C379.675 47.3585 380.409 47.2488 380.619 48.0168C380.619 48.7848 379.78 48.6751 379.045 48.8945C374.951 50.2111 371.277 48.6751 367.393 48.6751C365.294 48.6751 362.88 47.0293 361.095 49.2237C360.78 49.6625 359.625 49.3334 358.786 49.114C354.062 48.2362 349.233 48.5654 344.3 47.4682C341.886 46.9196 338.422 47.5779 335.482 48.0168C331.284 48.5654 327.085 47.2488 322.781 47.0293C319.212 46.8099 315.328 46.4808 311.759 46.2613C304.307 45.9322 296.854 44.9447 288.351 45.8224C293.495 47.0293 298.218 47.1391 302.837 47.1391C313.019 47.1391 322.991 49.6625 333.173 48.8945C340.836 52.4055 349.863 50.5403 358.156 52.0763C363.299 52.954 368.758 52.954 374.111 53.3929C374.636 53.3929 374.951 53.7221 375.266 54.3804C354.272 52.0763 333.068 52.8443 311.444 51.0889C316.588 53.3929 322.781 50.7597 327.505 54.0512C319.107 56.1358 310.92 53.0638 302.837 53.9415C305.776 55.4775 310.29 55.1484 312.599 57.5622C313.124 58.1107 312.809 58.769 311.34 58.9885C313.754 60.0856 314.908 56.6844 317.323 58.5496C317.533 57.8913 317.533 57.4524 317.638 56.9039C318.477 56.5747 319.737 57.7816 319.212 58.5496C319.002 58.6593 319.212 58.8788 319.212 59.0982C338.842 59.5371 358.366 60.9634 378.205 63.048C376.421 64.2549 375.266 64.3646 373.796 64.2549C366.344 63.7063 358.996 63.2674 351.543 62.7188C348.289 62.4994 344.93 62.28 341.676 62.28C333.698 62.0605 325.93 61.512 318.163 61.1828C308.715 60.7439 299.373 61.0731 289.926 61.0731C288.666 61.0731 286.882 60.6342 285.832 62.1703C301.367 62.4994 317.008 62.8286 332.438 63.3771C347.974 64.0354 363.824 64.8035 378.835 67.9853C374.321 69.0824 369.598 68.9727 365.189 68.5338C359.625 67.9853 354.167 67.327 348.604 67.2172C336.637 66.8881 324.566 66.2298 312.599 65.9006C294.125 65.4618 275.44 65.5715 256.86 65.4618C245.524 65.3521 234.082 65.2423 222.745 65.4618C204.061 65.9006 185.271 65.6812 166.587 66.0104C152.836 66.3395 138.98 66.1201 125.229 66.5589C113.577 66.8881 101.715 67.2172 89.9588 67.6561C76.2078 68.3144 62.5618 67.8755 48.7058 68.095C44.612 68.2047 40.7282 68.3144 36.3194 67.8755C37.2642 66.5589 38.7337 66.4492 40.4133 66.4492C49.2307 66.6687 57.8382 66.0104 66.5507 65.4618C70.6445 65.2423 74.8432 65.0229 79.042 65.6812C81.6663 66.1201 84.6054 65.3521 87.4396 65.2423C95.1024 64.8035 102.87 64.4743 110.533 64.2549C123.024 63.7063 135.411 62.9383 147.902 63.3771C155.985 63.5966 163.962 62.7188 171.94 63.2674C174.354 63.4869 176.454 62.7188 178.763 62.1703H160.288C150.211 62.1703 140.344 62.0605 130.267 62.1703C121.87 62.28 113.367 62.4994 105.074 63.048C102.345 63.2674 99.4061 63.1577 96.467 63.1577C85.865 63.4869 75.3681 63.816 64.7662 63.7063C59.0978 63.7063 53.5344 63.5966 48.076 64.3646C45.6617 64.6937 43.8772 62.9383 41.253 63.7063C41.4629 64.1452 41.7779 64.6938 41.8828 65.3521C39.8884 65.3521 37.684 65.7909 36.7393 65.2423C32.3306 62.8286 26.8722 63.5966 21.9386 62.7188C20.1541 62.3897 18.0548 62.6091 17.4249 61.0731C16.9001 59.6468 19.4194 59.4273 20.1541 58.2205C15.7454 56.6844 15.3255 52.7346 11.2317 50.3208C9.65719 50.5403 10.287 53.3929 6.82302 51.7472C7.13793 54.3804 11.5466 56.0261 9.76216 58.769C7.34786 59.0982 6.40314 57.8913 5.35344 56.9039C2.72921 52.5152 0 47.6876 0 42.9698C0.209939 35.5091 0.209939 27.8289 3.7789 20.5876C4.09381 20.039 4.09381 19.4904 4.61866 19.0515C5.56338 18.0641 5.87829 16.4183 8.39756 16.7475C10.7069 16.9669 11.0218 18.3932 11.1268 19.6001C11.3367 21.1362 12.7013 21.575 14.4858 22.343C15.4305 20.807 15.0106 19.1613 17.215 18.2835C17.4249 18.1738 17.5299 17.8447 17.5299 17.8447C14.2759 15.4309 18.7895 15.4309 19.9442 14.224C16.6901 12.2491 15.7454 9.50617 16.0603 6.54382C14.4858 6.21467 12.8063 6.10495 11.3367 6.54382C9.55222 7.20212 9.02738 5.99523 8.29259 5.44665C8.92241 4.89806 9.13235 4.23976 10.6019 4.02033C18.5796 3.03288 26.5573 2.15514 34.6399 1.82599C55.6338 1.05797 76.5228 0.83854 97.5167 0.728824C110.008 0.619107 122.499 1.16769 134.886 1.93571C138.665 2.15514 142.339 0.948257 146.118 1.38712C154.41 2.37458 162.703 1.71628 171.1 1.93571C178.763 2.04543 186.216 1.27741 193.879 1.82599C206.685 2.81344 219.491 2.15514 232.402 2.48429C242.27 2.81344 252.242 2.92316 262.004 3.58146C274.495 4.34948 286.987 5.00778 299.373 5.7758C311.025 6.4341 322.886 6.32438 334.328 7.97014C341.781 9.0673 349.443 9.17702 356.686 10.6033C360.885 11.3714 365.294 12.3588 369.703 12.688C372.012 12.9074 370.647 13.7851 371.277 14.3337C367.078 13.456 362.88 13.456 358.576 12.7977C354.062 12.0297 349.653 11.7005 345.14 13.2365C342.096 14.3337 338.527 13.456 335.378 13.1268C324.671 11.9199 313.754 11.3714 303.047 10.4936C290.346 9.50617 277.539 8.95759 264.838 8.18957C254.446 7.53127 243.844 7.64099 233.452 7.0924C221.486 6.4341 209.624 7.0924 197.553 6.54382C190.939 6.21467 184.641 6.21467 178.133 6.10495C173.725 5.99523 169.316 7.53127 164.697 6.4341C165.327 6.65353 165.957 7.20212 166.692 7.20212C177.713 7.20212 188.63 9.28674 199.862 9.0673C206.685 8.95759 213.613 9.28674 220.646 9.94504C224.005 10.2742 227.259 9.50617 230.828 9.83532C238.806 10.6033 247.098 10.3839 254.971 10.7131C267.987 11.2616 280.898 11.1519 293.915 11.9199C307.876 12.688 322.046 14.224 335.797 16.4183C342.306 17.4058 349.129 18.0641 355.952 18.2835C356.581 18.2835 357.106 18.3932 357.526 18.8321C352.697 18.9418 347.764 18.8321 342.935 18.2835C342.306 19.4904 344.405 19.271 344.51 20.3681C334.328 22.1236 323.936 18.8321 313.649 20.2584C315.958 21.7945 319.002 21.3556 321.417 21.3556C329.079 21.4653 336.217 22.7819 343.67 23.4402C346.609 23.7694 349.863 23.4402 352.592 24.3179C354.167 24.8665 357.421 23.1111 357.736 25.7443C361.935 24.9762 365.399 27.39 369.388 27.0609C373.586 26.7317 377.47 27.7192 381.564 28.2678C382.404 28.3775 383.873 28.5969 383.978 29.4746C384.188 30.5718 382.824 30.7912 381.879 31.1204C378.31 32.2176 374.846 30.6815 371.277 30.6815C370.332 30.6815 369.178 30.4621 368.233 30.4621C358.366 30.5718 348.499 29.0358 338.527 28.4872C332.228 28.0483 325.825 27.4997 319.527 27.0609C319.527 27.2803 319.527 27.4997 319.317 27.7192C325.72 28.2678 332.018 29.2552 338.527 28.4872Z" fill="#F7C32E"/>
</svg>
